<svg width="250" height="250" viewBox="0 0 250 250" fill="none" xmlns="http://www.w3.org/2000/svg">
<path d="M177.968 176.238C180.009 176.321 181.676 175.779 182.968 174.613C184.301 173.488 185.343 171.988 186.093 170.113C186.843 168.238 187.364 166.133 187.655 163.8C187.947 161.508 188.093 159.238 188.093 156.988V146.8C188.093 144.383 188.364 142.092 188.905 139.925C189.489 137.758 190.364 135.738 191.53 133.863C192.697 131.988 194.155 130.321 195.905 128.863C197.697 127.363 199.822 126.092 202.28 125.05C200.28 124.217 198.509 123.217 196.968 122.05C195.426 120.883 194.093 119.592 192.968 118.175C191.301 116.092 190.072 113.779 189.28 111.238C188.489 108.654 188.093 105.925 188.093 103.05V92.8625C188.093 90.6125 188.03 88.3417 187.905 86.05C187.822 83.7167 187.468 81.6125 186.843 79.7375C186.218 77.8625 185.218 76.3625 183.843 75.2375C182.468 74.0709 180.509 73.5292 177.968 73.6125L180.093 63.8C184.551 63.8 188.301 64.7167 191.343 66.55C194.384 68.3417 196.864 70.7584 198.78 73.8C200.614 76.55 201.905 79.6334 202.655 83.05C203.447 86.425 203.843 89.6959 203.843 92.8625V103.05C203.843 105.383 204.051 107.446 204.468 109.238C204.926 111.029 205.614 112.55 206.53 113.8C207.739 115.508 209.426 116.758 211.593 117.55C213.801 118.342 216.447 118.738 219.53 118.738V131.238C216.072 131.238 213.197 131.738 210.905 132.738C208.614 133.696 206.884 135.258 205.718 137.425C205.093 138.592 204.614 139.967 204.28 141.55C203.989 143.092 203.843 144.842 203.843 146.8V156.988C203.843 160.238 203.364 163.613 202.405 167.113C201.447 170.613 200.03 173.738 198.155 176.488C196.28 179.363 193.822 181.675 190.78 183.425C187.78 185.217 184.218 186.113 180.093 186.113L177.968 176.238Z" fill="#D82D2D"/>
<path d="M114.21 105.3C115.085 104.008 116.043 102.821 117.085 101.738C118.168 100.613 119.293 99.6334 120.46 98.8C122.252 97.5084 124.231 96.5084 126.397 95.8C128.564 95.0917 130.856 94.7375 133.272 94.7375C136.814 94.7375 140.064 95.2792 143.022 96.3625C145.981 97.4042 148.522 99.05 150.647 101.3C152.772 103.55 154.418 106.446 155.585 109.988C156.793 113.488 157.397 117.717 157.397 122.675V163.613H140.022V122.55C140.022 120.133 139.71 118.05 139.085 116.3C138.502 114.55 137.647 113.133 136.522 112.05C135.397 110.967 134.043 110.175 132.46 109.675C130.877 109.133 129.085 108.863 127.085 108.863C125.543 108.863 124.106 109.008 122.772 109.3C121.439 109.592 120.231 110.029 119.147 110.613C118.147 111.113 117.231 111.717 116.397 112.425C115.606 113.133 114.877 113.925 114.21 114.8V163.613H96.835V67.6125H114.21V105.3Z" fill="#D82D2D"/>
<path d="M69.8975 186.113C65.7725 186.113 62.1891 185.196 59.1475 183.363C56.1475 181.571 53.71 179.3 51.835 176.55C49.835 173.675 48.3766 170.508 47.46 167.05C46.585 163.633 46.1475 160.279 46.1475 156.988V146.8C46.1475 141.258 44.8558 137.279 42.2725 134.863C39.6891 132.446 35.7516 131.238 30.46 131.238V118.738C35.7516 118.738 39.6891 117.529 42.2725 115.113C44.8558 112.696 46.1475 108.675 46.1475 103.05V92.8625C46.1475 89.3209 46.6475 85.675 47.6475 81.925C48.6475 78.1334 50.2308 74.8417 52.3975 72.05C54.1891 69.6334 56.5433 67.6542 59.46 66.1125C62.3766 64.5709 65.8558 63.8 69.8975 63.8L72.0225 73.6125C69.4808 73.5292 67.5225 74.0709 66.1475 75.2375C64.7725 76.3625 63.7725 77.8625 63.1475 79.7375C62.5225 81.6125 62.1475 83.7167 62.0225 86.05C61.9391 88.3417 61.8975 90.6125 61.8975 92.8625V103.05C61.8975 108.008 60.6683 112.404 58.21 116.238C55.7933 120.071 52.0225 122.988 46.8975 124.988C52.0641 126.988 55.8558 129.883 58.2725 133.675C60.6891 137.467 61.8975 141.842 61.8975 146.8V156.988C61.8975 159.238 62.0225 161.508 62.2725 163.8C62.5641 166.133 63.085 168.238 63.835 170.113C64.585 171.988 65.6058 173.488 66.8975 174.613C68.2308 175.779 69.9391 176.321 72.0225 176.238L69.8975 186.113Z" fill="#D82D2D"/>
</svg>
