<?xml version="1.0" encoding="utf-8"?>
<!-- Generator: Adobe Illustrator 26.0.3, SVG Export Plug-In . SVG Version: 6.00 Build 0)  -->
<svg version="1.1" id="Layer_1" xmlns="http://www.w3.org/2000/svg" xmlns:xlink="http://www.w3.org/1999/xlink" x="0px" y="0px"
	 viewBox="0 0 1011.18 181.44" style="enable-background:new 0 0 1011.18 181.44;" xml:space="preserve">
<style type="text/css">
	.st0{fill:#FFFFFF;}
	.st1{fill:#0F5FDC;}
</style>
<path fill="#ffffff" d="M101.86,45.37v35.78H64.53V45.37h-19.3v90.08h19.3V97.75h37.33v37.71h19.3V45.37H101.86z M244.34,118.71V45.37h-19.32v73.61
	c0,10.69,5.81,16.48,16.48,16.48h43.89v-16.74H244.34z M285.38,45.37v16.6h26.63v73.48h19.3V61.97h26.64v-16.6H285.38z
	 M395.69,113.44c-1.43,5.54-6.18,8.36-13.38,8.36c-9.01,0-14.8-5.66-16.08-14.8h46.57c0.14-1.41,0.27-3.34,0.27-5.79
	c0-14.8-9.13-31.65-32.04-31.65c-22.02,0-32.04,16.85-32.04,33.33c0,16.33,11.33,33.58,33.33,33.58c15.96,0,28.31-9.01,30.88-23.03
	H395.69z M381.02,82.69c8.61,0,13.64,5.79,14.15,13.01h-28.7C368.02,86.67,372.9,82.69,381.02,82.69z M470.59,111.26
	c-1.29,5.79-6.56,9.77-13.12,9.77c-9.77,0-15.56-7.47-15.56-18.01c0-10.54,5.65-18.14,15.31-18.14c6.56,0,12.08,4.24,13.12,10.03
	h18.01c-1.16-15.05-14.67-25.34-31.65-25.34c-20.09,0-33.45,14.53-33.45,33.45c0,18.91,13.37,33.45,33.45,33.45
	c16.85,0,30.24-10.81,32.17-25.21H470.59z M536.73,69.57c-9.01,0-16.08,3.73-19.82,10.03V45.37h-17.89v90.08h17.89V99.93
	c0-8.36,5.54-14.4,13.38-14.4c7.47,0,12.62,5.66,12.62,13.51v36.42h17.89v-40.4C560.8,80.11,551.28,69.57,536.73,69.57z
	 M133.27,89.46c0-30.31,19.59-45.99,41.93-45.99c21.03,0,36.44,12.84,38.71,32.24h-18.76c-1.19-9.38-9.44-15.67-19.95-15.67
	c-13.5,0-23.89,10.15-23.89,29.42c0,19.27,10.39,29.29,23.89,29.29c10.75,0,18.99-6.29,20.43-15.54h17.92
	c-1.55,19.27-16.96,32.24-38.35,32.24C152.5,135.45,133.27,119.78,133.27,89.46z M600.52,135.45h-3.5V43.48h3.5V135.45z
	 M636.73,70.11h3.47c0.52,5.42,4.1,8.93,10.21,8.93c5.5,0,9.54-2.01,9.54-6.87c0-9.96-21.93-4.91-21.93-17.5
	c0-5.63,4.98-9.4,12.24-9.4c7.05,0,12.03,4.13,12.65,10.48h-3.47c-0.47-4.39-3.94-7.28-9.18-7.28c-5.44,0-8.66,2.37-8.66,6.19
	c0,9.76,22.04,4.13,22.04,17.5c0,6.51-5.76,10.07-13.22,10.07C642.33,82.25,637.25,77.44,636.73,70.11z M690.71,81.83h-3.27v-5.42
	c-1.35,3.92-4.67,5.83-8.81,5.83c-5.91,0-9.75-4.18-9.75-10.64v-15.8h3.27V71.2c0,4.85,2.75,8.05,6.95,8.05
	c4.87,0,8.35-3.92,8.35-9.45V55.81h3.27V81.83z M710.51,55.4c-3.84,0-7.46,2.06-9.07,5.11v-4.69h-3.26v36.55h3.26V77.13
	c1.61,3.04,5.24,5.12,9.07,5.12c8.3,0,12.71-6,12.71-13.43C723.22,61.39,718.81,55.4,710.51,55.4z M710.41,79.25
	c-5.65,0-9.33-4.13-9.33-10.43s3.68-10.43,9.33-10.43s9.33,4.13,9.33,10.43S716.06,79.25,710.41,79.25z M748.01,73.62
	c-0.88,3.56-3.78,5.63-8.4,5.63c-5.24,0-9.29-4.29-9.5-10.12h20.9c0.04-0.37,0.1-1.25,0.1-1.71c0-7.18-4.82-12.03-11.97-12.03
	c-7.37,0-12.34,5.31-12.34,13.21c0,7.75,5.39,13.64,12.81,13.64c6.48,0,10.98-3.41,11.82-8.63H748.01z M739.14,58.39
	c4.98,0,8.19,2.94,8.55,7.75h-17.37C731.16,61.28,734.37,58.39,739.14,58.39z M760.81,55.81h8.87v2.99h-9.64v23.03h-3.27V59.84
	C756.77,57.26,758.22,55.81,760.81,55.81z M770.82,68.82c0-6.81,4.2-13.42,12.5-13.42c5.55,0,10.73,3.2,11.61,8.93h-3.22
	c-0.52-3.41-4.1-5.94-8.4-5.94c-6.22,0-9.07,4.8-9.07,10.43c0,5.63,2.9,10.43,9.07,10.43c4.3,0,7.36-2.07,8.4-5.47h3.11
	c-0.93,5.21-4.93,8.47-11.51,8.47C775.02,82.25,770.82,75.64,770.82,68.82z M800.17,45.28h3.27v15.95c1.35-3.92,4.67-5.83,8.81-5.83
	c5.91,0,9.75,4.18,9.75,10.64v15.8h-3.27V66.45c0-4.85-2.75-8.05-6.95-8.05c-4.87,0-8.35,3.92-8.35,9.45v13.99h-3.27V45.28z
	 M838.7,55.4c-5.44,0-10.42,3.55-10.94,8.56h3.27c0.21-3.04,3.63-5.57,7.67-5.57c4.88,0,7.67,2.74,7.67,6.66
	c0,0.77-0.47,1.24-1.61,1.24h-6.32c-6.48,0-10.63,3.15-10.63,8.11c0,4.8,3.57,7.86,9.18,7.86c4.19,0,7.82-2.02,9.38-5.17v4.75h3.27
	V65.05C849.64,59.27,845.54,55.4,838.7,55.4z M846.37,69.8c0,5.99-3.37,9.45-9.13,9.45c-3.63,0-5.95-1.91-5.95-4.86
	c0-3.3,2.79-5.37,7.15-5.37h7.93V69.8z M860.68,55.81h8.87v2.99h-9.64v23.03h-3.27V59.84C856.64,57.26,858.09,55.81,860.68,55.81z
	 M892.41,55.82v4.17c-1.65-2.68-5.44-4.59-9.07-4.59c-8.29,0-12.7,5.99-12.7,13.42c0,7.43,4.41,13.43,12.7,13.43
	c4.15,0,7.89-1.76,9.07-4.29v11.41h-18.41v3h17.63c2.59,0,4.04-1.45,4.04-4.03V55.82H892.41z M883.45,79.25
	c-5.65,0-9.33-4.13-9.33-10.43s3.68-10.43,9.33-10.43c5.65,0,9.33,4.13,9.33,10.43S889.1,79.25,883.45,79.25z M902.79,45.28h3.94
	v5.27h-3.94V45.28z M903.15,55.81h3.27v26.02h-3.27V55.81z M913.89,55.81h3.27v5.42c1.35-3.92,4.67-5.83,8.81-5.83
	c5.91,0,9.75,4.18,9.75,10.64v15.8h-3.27V66.45c0-4.85-2.75-8.05-6.95-8.05c-4.87,0-8.35,3.92-8.35,9.45v13.99h-3.27V55.81z
	 M962.68,55.82v4.17c-1.66-2.68-5.44-4.59-9.07-4.59c-8.3,0-12.7,5.99-12.7,13.42c0,7.43,4.4,13.43,12.7,13.43
	c4.15,0,7.88-1.76,9.07-4.29v11.41h-18.41v3h17.63c2.59,0,4.04-1.45,4.04-4.03V55.82H962.68z M953.7,79.25
	c-5.65,0-9.33-4.13-9.33-10.43s3.68-10.43,9.33-10.43c5.66,0,9.33,4.13,9.33,10.43S959.36,79.25,953.7,79.25z M652.98,99.1h-13.33
	v36.14h3.48v-15.18h9.85c7,0,11.35-4.23,11.35-10.47S659.98,99.1,652.98,99.1z M653.08,116.87h-9.95v-14.56h9.95
	c5.55,0,7.57,3.46,7.57,7.28C660.65,113.4,658.63,116.87,653.08,116.87z M672.68,109.22h8.87v2.99h-9.64v23.03h-3.27v-21.99
	C668.64,110.67,670.09,109.22,672.68,109.22z M695.86,108.81c-7.68,0-13.17,5.57-13.17,13.42c0,7.84,5.49,13.43,13.17,13.43
	c7.67,0,13.17-5.58,13.17-13.43C709.03,114.39,703.53,108.81,695.86,108.81z M695.86,132.66c-5.81,0-9.75-4.34-9.75-10.43
	s3.93-10.43,9.75-10.43c5.8,0,9.75,4.34,9.75,10.43S701.67,132.66,695.86,132.66z M734.39,109.23v4.17
	c-1.66-2.68-5.44-4.59-9.07-4.59c-8.3,0-12.71,5.99-12.71,13.42c0,7.43,4.41,13.43,12.71,13.43c4.14,0,7.88-1.76,9.07-4.29v11.41
	h-18.41v3h17.62c2.6,0,4.04-1.45,4.04-4.03v-32.52H734.39z M725.42,132.66c-5.65,0-9.33-4.13-9.33-10.43s3.68-10.43,9.33-10.43
	s9.33,4.13,9.33,10.43S731.07,132.66,725.42,132.66z M749.06,109.22h8.87v2.99h-9.64v23.03h-3.27v-21.99
	C745.02,110.67,746.47,109.22,749.06,109.22z M780.27,127.04c-0.88,3.56-3.78,5.63-8.4,5.63c-5.24,0-9.28-4.29-9.49-10.12h20.89
	c0.05-0.37,0.11-1.25,0.11-1.71c0-7.18-4.82-12.03-11.98-12.03c-7.36,0-12.33,5.31-12.33,13.21c0,7.75,5.39,13.64,12.8,13.64
	c6.49,0,11-3.41,11.82-8.63H780.27z M771.41,111.8c4.98,0,8.19,2.94,8.56,7.75H762.6C763.42,114.69,766.64,111.8,771.41,111.8z
	 M787.02,127.03h3.27c0.36,3.67,2.8,5.63,6.95,5.63c3.63,0,6.02-2.07,6.02-4.44c0-8.52-15.61-0.98-15.61-12.29
	c0-4.34,3.63-7.12,9.23-7.12c5.55,0,9.33,3.1,9.64,7.8h-3.27c-0.42-3.67-4.1-4.8-6.59-4.8c-3.37,0-5.6,1.65-5.6,4.13
	c0,7.54,15.61,0.31,15.61,12.29c0,4.54-3.79,7.44-9.44,7.44C791.32,135.66,787.44,132.4,787.02,127.03z M810.15,127.03h3.27
	c0.36,3.67,2.8,5.63,6.95,5.63c3.63,0,6.02-2.07,6.02-4.44c0-8.52-15.61-0.98-15.61-12.29c0-4.34,3.63-7.12,9.23-7.12
	c5.55,0,9.33,3.1,9.64,7.8h-3.27c-0.42-3.67-4.1-4.8-6.59-4.8c-3.37,0-5.6,1.65-5.6,4.13c0,7.54,15.61,0.31,15.61,12.29
	c0,4.54-3.79,7.44-9.44,7.44C814.45,135.66,810.56,132.4,810.15,127.03z M832.91,101.01h8.52v1.73h-3.34v9.15h-1.85v-9.15h-3.34
	V101.01z M843.28,101.01h2.28l3.34,8.17l3.34-8.17h2.28v10.88h-1.81v-7.46l-3.03,7.46h-1.61l-2.99-7.46v7.46h-1.81V101.01z"/>
</svg>
